Coordinates
version=1
nRows=13
nColumns=34
inDegrees=yes

Units are S.I. units (second, meters, Newtons, ...)
If the header above contains a line with 'inDegrees', this indicates whether rotational values are in degrees (yes) or radians (no).

endheader
time	pelvis_tilt	pelvis_list	pelvis_rotation	pelvis_tx	pelvis_ty	pelvis_tz	hip_flexion_r	hip_adduction_r	hip_rotation_r	knee_angle_r	ankle_angle_r	subtalar_angle_r	mtp_angle_r	hip_flexion_l	hip_adduction_l	hip_rotation_l	knee_angle_l	ankle_angle_l	subtalar_angle_l	mtp_angle_l	lumbar_extension	lumbar_bending	lumbar_rotation	arm_flex_r	arm_add_r	arm_rot_r	elbow_flex_r	pro_sup_r	arm_flex_l	arm_add_l	arm_rot_l	elbow_flex_l	pro_sup_l
      8.13333330	     -5.42384918	      0.47072792	     -1.87566087	     -0.61812262	      0.80870782	     -0.17036996	     42.30991631	     -7.38125590	     -7.11997941	     65.57762678	     30.85737821	     -2.82010457	      0.00000000	     42.13653469	    -10.27490003	    -11.59869490	     67.26670149	     30.11155683	      2.66958505	      0.00000000	    -39.15122664	     -0.47087651	      2.71650195	     15.89247817	    -10.06062923	    -11.78169111	     31.43310625	     96.28244413	     15.75614217	    -13.61456538	      6.01956935	     35.17283931	     98.03255588
      8.15000000	     -6.16807167	      0.50755963	     -1.83969953	     -0.61457077	      0.81753938	     -0.16975789	     41.49546538	     -7.19218651	     -7.35428565	     63.04246445	     30.22095134	     -2.61754619	      0.00000000	     41.29184474	    -10.03581675	    -11.96935721	     64.74149490	     29.52182603	      3.09671914	      0.00000000	    -36.64356235	     -0.47939453	      2.58939202	     14.82140468	     -9.93967141	    -11.58051246	     31.19131483	     96.34493807	     14.54012720	    -13.61016283	      6.06231485	     34.85506118	     98.06022702
      8.16666670	     -7.37915771	      0.48167948	     -1.95832755	     -0.60936612	      0.82116423	     -0.16993216	     41.35505731	     -6.94986252	     -7.56813548	     60.74002391	     29.42163244	     -2.69940741	      0.00000000	     41.02698501	     -9.82052641	    -12.10962127	     62.35385921	     29.18504221	      3.42416512	      0.00000000	    -33.21437238	     -0.45197144	      2.43561978	     13.68558089	     -9.72429505	    -10.97633546	     30.65211033	     96.49041872	     12.97924749	    -13.58397133	      6.00826735	     34.21616059	     98.07497380
      8.18333330	     -8.32092746	      0.36939221	     -2.03886402	     -0.60567906	      0.83255186	     -0.17036816	     40.56894488	     -6.50540802	     -7.84603774	     57.60779587	     27.93064903	     -2.78254253	      0.00000000	     40.14243056	     -9.50195434	    -12.08158242	     59.46227714	     28.46476474	      3.62288541	      0.00000000	    -30.16783907	     -0.28385565	      2.30000691	     12.56132422	     -9.56385947	    -10.43483878	     29.96063903	     96.59495320	     11.49499686	    -13.47784665	      5.94007756	     33.57209007	     98.05330810
      8.20000000	     -8.98184700	      0.30288886	     -2.08606191	     -0.60126072	      0.84456116	     -0.17117554	     39.09037217	     -6.19046249	     -8.28949318	     53.99707461	     26.25005446	     -2.49416509	      0.00000000	     38.65557020	     -9.06576055	    -12.20856886	     55.91296152	     27.64315067	      4.20796511	      0.00000000	    -27.37425573	     -0.16268542	      2.18583104	     11.25855523	     -9.44327028	    -10.22162639	     29.51231510	     96.62625551	     10.03122377	    -13.35907299	      5.98717341	     33.16254313	     98.04454520
      8.21666670	     -9.56530148	      0.07082076	     -2.15565637	     -0.60029505	      0.85008722	     -0.17174131	     37.75191702	     -5.57974049	     -8.52733117	     50.58003028	     24.42180645	     -3.24274723	      0.00000000	     37.67350270	     -8.80186396	    -12.12679516	     52.93692354	     26.35828660	      3.82512979	      0.00000000	    -24.73471228	      0.17992628	      1.95413912	     10.41442438	     -9.28321901	     -9.53583362	     28.69182057	     96.69849688	      8.63356214	    -13.22491054	      5.93686559	     32.39331906	     97.97064045
      8.23333330	    -10.19103498	      0.12018924	     -2.26292359	     -0.59638518	      0.85999175	     -0.17389963	     36.43922735	     -5.39514796	     -8.82778397	     47.17024311	     23.03166585	     -2.86976495	      0.00000000	     36.57092999	     -8.33787779	    -12.58969542	     49.62295939	     25.00347274	      4.04546290	      0.00000000	    -22.07270146	      0.16980948	      1.80536145	      9.18486698	     -9.16934174	     -9.30891849	     28.34941782	     96.71323347	      7.25426240	    -13.04277621	      6.01654718	     32.09305462	     97.95262695
      8.25000000	    -11.08861972	      0.16773695	     -2.06712621	     -0.59715420	      0.86648514	     -0.17471547	     35.76353734	     -5.10329037	     -8.68224159	     43.81159215	     21.70509448	     -3.24132640	      0.00000000	     36.15037047	     -7.57914926	    -12.40425368	     46.59393417	     22.82154116	      2.78694248	      0.00000000	    -19.45418574	      0.30467465	      1.32973582	      8.23513468	     -9.06879409	     -8.50400031	     27.96031317	     96.73032925	      6.01837560	    -13.04301521	      6.09213713	     31.80622671	     97.86321798
      8.26666670	    -11.75593508	      0.11592956	     -1.66017910	     -0.59313109	      0.87864301	     -0.17608787	     34.39491826	     -4.84432220	     -8.90143041	     39.78682861	     19.96162396	     -3.16943762	      0.00000000	     35.22386342	     -6.88231935	    -12.29227894	     43.10131223	     20.18954821	      2.00513050	      0.00000000	    -17.10356357	      0.49846855	      0.94557858	      7.28744005	     -9.03591101	     -7.83119142	     27.70997884	     96.69903479	      4.95809304	    -12.92042202	      6.25186103	     31.71321806	     97.78212060
      8.28333330	    -12.49950110	      0.12216737	     -1.39382196	     -0.58922369	      0.88411189	     -0.17714790	     33.06504547	     -4.59917803	     -9.03674988	     35.70223618	     18.43739690	     -2.63945297	      0.00000000	     34.19890699	     -6.12164221	    -12.14296909	     39.16745811	     18.40844373	      2.34324255	      0.00000000	    -14.64798763	      0.57543096	      0.80563095	      6.15351089	     -8.99848183	     -7.49121521	     27.47943995	     96.67084519	      3.85562236	    -12.78953418	      6.40519706	     31.73292941	     97.74689480
      8.30000000	    -13.10103141	      0.11949198	     -1.13616600	     -0.59184300	      0.89502876	     -0.17846790	     31.48886104	     -4.20585114	     -8.92238278	     30.98937964	     16.37939857	     -2.91131791	      0.00000000	     32.90693058	     -5.16581262	    -11.61611525	     34.54592133	     16.10006231	      1.66013951	      0.00000000	    -12.70668570	      0.64364379	      0.62497014	      5.33146600	     -9.04690625	     -6.74913480	     27.22429301	     96.59720573	      2.93182345	    -12.69956598	      6.65702037	     31.83086776	     97.66364361
      8.31666670	    -13.38957127	      0.13888901	     -1.14116111	     -0.58803881	      0.90529963	     -0.17782738	     29.15289637	     -3.64093034	     -8.58553271	     25.61670083	     14.05235159	     -2.74198214	      0.00000000	     30.92326492	     -4.37858378	    -11.12357466	     29.69019670	     13.72321015	      1.43439009	      0.00000000	    -11.07662436	      0.63742822	      0.65695257	      4.65009701	     -9.07521643	     -6.01634291	     26.87063637	     96.51347881	      2.08471495	    -12.55564613	      6.84053590	     31.87024198	     97.56541823
      8.33333330	    -13.64541573	      0.29789317	     -1.22760534	     -0.58920652	      0.91281090	     -0.17915989	     27.04634779	     -3.20991736	     -7.96194964	     20.58541809	     11.72420699	     -2.65230002	      0.00000000	     28.91850638	     -3.50840065	    -10.71139926	     24.89089911	     11.30387347	      1.05719291	      0.00000000	     -9.75560611	      0.47864032	      0.74300444	      4.06111463	     -9.12206088	     -5.27365695	     26.78959030	     96.42542824	      1.38348570	    -12.48586662	      7.00037614	     32.17611609	     97.47629632
